<svg width="1092" height="759" viewBox="0 0 1092 759" fill="none" xmlns="http://www.w3.org/2000/svg">
<path d="M272.429 230C112.429 130.4 156.333 20.1667 125.5 -33H1167.93C1184.26 316.667 1207.13 1020.1 1167.93 1036.5C1128.73 1052.9 938.595 1053.67 848.428 1052C751.261 1058.67 324.8 1195.3 138 1152.5C-95.5 1099 162.925 847.935 179 827.5C208.5 790 297 737.5 261 633.5C225 529.5 472.429 354.5 272.429 230Z" fill="#909C69" stroke="#909C69"/>
<path d="M321 231.5C168.6 227.5 81.8333 39.5 57.5 -54H1130V1079H3.49997C-12.1 989 109.333 898.167 172 864C219.5 835 292.8 745.4 238 691C170.165 623.661 262.277 514.929 274.173 500.886L274.5 500.5C285.5 487.5 511.5 236.5 321 231.5Z" stroke="black" stroke-opacity="0.7" stroke-width="3"/>
</svg>
