<svg width="243" height="246" viewBox="0 0 243 246" fill="none" xmlns="http://www.w3.org/2000/svg">
<path d="M31.0704 245C30.5264 245 30.0784 244.824 29.7264 244.472C29.3744 244.12 29.1984 243.672 29.1984 243.128V209.384C29.1984 208.84 29.3744 208.392 29.7264 208.04C30.0784 207.688 30.5264 207.512 31.0704 207.512H40.6704C43.0384 207.512 45.1344 208.04 46.9584 209.096C48.7824 210.12 50.2064 211.544 51.2304 213.368C52.2544 215.192 52.7664 217.304 52.7664 219.704C52.7664 222.04 52.2544 224.12 51.2304 225.944C50.2064 227.736 48.7824 229.16 46.9584 230.216C45.1344 231.24 43.0384 231.752 40.6704 231.752H32.9424V243.128C32.9424 243.672 32.7664 244.12 32.4144 244.472C32.0624 244.824 31.6144 245 31.0704 245ZM32.9424 228.152H40.6704C42.3024 228.152 43.7584 227.8 45.0384 227.096C46.3184 226.36 47.3104 225.352 48.0144 224.072C48.7504 222.792 49.1184 221.336 49.1184 219.704C49.1184 218.008 48.7504 216.52 48.0144 215.24C47.3104 213.96 46.3184 212.952 45.0384 212.216C43.7584 211.48 42.3024 211.112 40.6704 211.112H32.9424V228.152ZM69.0756 245.24C66.4836 245.24 64.1796 244.68 62.1636 243.56C60.1796 242.408 58.6116 240.824 57.4596 238.808C56.3396 236.792 55.7796 234.488 55.7796 231.896C55.7796 229.272 56.3076 226.968 57.3636 224.984C58.4516 222.968 59.9396 221.384 61.8276 220.232C63.7156 219.08 65.8916 218.504 68.3556 218.504C70.7876 218.504 72.8996 219.064 74.6916 220.184C76.5156 221.272 77.9236 222.792 78.9156 224.744C79.9076 226.696 80.4036 228.92 80.4036 231.416C80.4036 231.928 80.2436 232.344 79.9236 232.664C79.6036 232.952 79.1876 233.096 78.6756 233.096H58.2756V230.024H79.0596L76.9956 231.512C77.0276 229.656 76.6916 227.992 75.9876 226.52C75.2836 225.048 74.2756 223.896 72.9636 223.064C71.6836 222.232 70.1476 221.816 68.3556 221.816C66.5316 221.816 64.9316 222.248 63.5556 223.112C62.1796 223.976 61.1076 225.176 60.3396 226.712C59.6036 228.216 59.2356 229.944 59.2356 231.896C59.2356 233.848 59.6516 235.576 60.4836 237.08C61.3476 238.584 62.5156 239.768 63.9876 240.632C65.4596 241.496 67.1556 241.928 69.0756 241.928C70.2276 241.928 71.3796 241.736 72.5316 241.352C73.7156 240.936 74.6596 240.424 75.3636 239.816C75.7156 239.528 76.1156 239.384 76.5636 239.384C77.0116 239.352 77.3956 239.464 77.7156 239.72C78.1316 240.104 78.3396 240.52 78.3396 240.968C78.3716 241.416 78.1956 241.8 77.8116 242.12C76.7556 243.016 75.4116 243.768 73.7796 244.376C72.1476 244.952 70.5796 245.24 69.0756 245.24ZM96.9279 245C95.2319 245 93.7119 244.6 92.3679 243.8C91.0559 243 90.0159 241.912 89.2479 240.536C88.4799 239.128 88.0959 237.528 88.0959 235.736V212.264C88.0959 211.72 88.2559 211.272 88.5759 210.92C88.9279 210.568 89.3759 210.392 89.9199 210.392C90.4639 210.392 90.9119 210.568 91.2639 210.92C91.6159 211.272 91.7919 211.72 91.7919 212.264V235.736C91.7919 237.368 92.2719 238.712 93.2319 239.768C94.1919 240.792 95.4239 241.304 96.9279 241.304H98.2239C98.7359 241.304 99.1519 241.48 99.4719 241.832C99.7919 242.184 99.9519 242.632 99.9519 243.176C99.9519 243.72 99.7599 244.168 99.3759 244.52C98.9919 244.84 98.5119 245 97.9359 245H96.9279ZM84.9759 222.92C84.4959 222.92 84.0959 222.776 83.7759 222.488C83.4559 222.168 83.2959 221.784 83.2959 221.336C83.2959 220.856 83.4559 220.472 83.7759 220.184C84.0959 219.864 84.4959 219.704 84.9759 219.704H97.2159C97.6959 219.704 98.0959 219.864 98.4159 220.184C98.7359 220.472 98.8959 220.856 98.8959 221.336C98.8959 221.784 98.7359 222.168 98.4159 222.488C98.0959 222.776 97.6959 222.92 97.2159 222.92H84.9759ZM123.296 245.48C120.704 245.48 118.272 244.984 116 243.992C113.76 243 111.776 241.624 110.048 239.864C108.352 238.072 107.024 236.024 106.064 233.72C105.104 231.384 104.624 228.888 104.624 226.232C104.624 223.608 105.088 221.144 106.016 218.84C106.976 216.504 108.304 214.456 110 212.696C111.728 210.936 113.712 209.56 115.952 208.568C118.224 207.544 120.672 207.032 123.296 207.032C125.6 207.032 127.696 207.368 129.584 208.04C131.472 208.712 133.296 209.784 135.056 211.256C135.344 211.48 135.504 211.752 135.536 212.072C135.6 212.36 135.568 212.648 135.44 212.936C135.312 213.192 135.12 213.384 134.864 213.512C134.8 213.768 134.64 213.96 134.384 214.088C134.128 214.216 133.824 214.264 133.472 214.232C133.152 214.2 132.832 214.056 132.512 213.8C131.264 212.712 129.904 211.912 128.432 211.4C126.96 210.856 125.248 210.584 123.296 210.584C121.216 210.584 119.264 211 117.44 211.832C115.648 212.664 114.064 213.8 112.688 215.24C111.312 216.68 110.224 218.344 109.424 220.232C108.656 222.12 108.272 224.12 108.272 226.232C108.272 228.408 108.656 230.44 109.424 232.328C110.224 234.216 111.312 235.88 112.688 237.32C114.064 238.76 115.648 239.896 117.44 240.728C119.264 241.528 121.216 241.928 123.296 241.928C125.056 241.928 126.72 241.64 128.288 241.064C129.856 240.488 131.344 239.656 132.752 238.568C133.136 238.248 133.536 238.12 133.952 238.184C134.4 238.248 134.784 238.44 135.104 238.76C135.424 239.08 135.584 239.496 135.584 240.008C135.584 240.264 135.536 240.504 135.44 240.728C135.376 240.92 135.248 241.128 135.056 241.352C133.424 242.856 131.6 243.928 129.584 244.568C127.568 245.176 125.472 245.48 123.296 245.48ZM152.458 245.24C149.994 245.24 147.786 244.664 145.834 243.512C143.882 242.328 142.33 240.728 141.178 238.712C140.058 236.696 139.498 234.424 139.498 231.896C139.498 229.336 140.074 227.048 141.226 225.032C142.41 223.016 144.01 221.432 146.026 220.28C148.042 219.096 150.314 218.504 152.842 218.504C155.37 218.504 157.626 219.096 159.61 220.28C161.626 221.432 163.21 223.016 164.362 225.032C165.546 227.048 166.154 229.336 166.186 231.896L164.698 233.048C164.698 235.352 164.154 237.432 163.066 239.288C162.01 241.112 160.554 242.568 158.698 243.656C156.874 244.712 154.794 245.24 152.458 245.24ZM152.842 241.88C154.698 241.88 156.346 241.448 157.786 240.584C159.258 239.72 160.41 238.536 161.242 237.032C162.106 235.496 162.538 233.784 162.538 231.896C162.538 229.976 162.106 228.264 161.242 226.76C160.41 225.256 159.258 224.072 157.786 223.208C156.346 222.312 154.698 221.864 152.842 221.864C151.018 221.864 149.37 222.312 147.898 223.208C146.426 224.072 145.258 225.256 144.394 226.76C143.53 228.264 143.098 229.976 143.098 231.896C143.098 233.784 143.53 235.496 144.394 237.032C145.258 238.536 146.426 239.72 147.898 240.584C149.37 241.448 151.018 241.88 152.842 241.88ZM164.314 245C163.77 245 163.322 244.84 162.97 244.52C162.618 244.168 162.442 243.72 162.442 243.176V234.968L163.354 231.176L166.186 231.896V243.176C166.186 243.72 166.01 244.168 165.658 244.52C165.306 244.84 164.858 245 164.314 245ZM174.911 228.824C175.007 226.84 175.519 225.064 176.447 223.496C177.407 221.928 178.639 220.696 180.143 219.8C181.679 218.904 183.375 218.456 185.231 218.456C186.703 218.456 187.839 218.664 188.639 219.08C189.439 219.496 189.743 220.104 189.551 220.904C189.423 221.384 189.199 221.704 188.879 221.864C188.591 222.024 188.223 222.088 187.775 222.056C187.359 222.024 186.879 221.992 186.335 221.96C184.543 221.8 182.943 221.992 181.535 222.536C180.159 223.048 179.055 223.848 178.223 224.936C177.423 226.024 177.023 227.32 177.023 228.824H174.911ZM175.199 245C174.623 245 174.175 244.84 173.855 244.52C173.535 244.2 173.375 243.752 173.375 243.176V220.568C173.375 219.992 173.535 219.544 173.855 219.224C174.175 218.904 174.623 218.744 175.199 218.744C175.775 218.744 176.223 218.904 176.543 219.224C176.863 219.544 177.023 219.992 177.023 220.568V243.176C177.023 243.752 176.863 244.2 176.543 244.52C176.223 244.84 175.775 245 175.199 245ZM205.341 245.24C202.749 245.24 200.445 244.68 198.429 243.56C196.445 242.408 194.877 240.824 193.725 238.808C192.605 236.792 192.045 234.488 192.045 231.896C192.045 229.272 192.573 226.968 193.629 224.984C194.717 222.968 196.205 221.384 198.093 220.232C199.981 219.08 202.157 218.504 204.621 218.504C207.053 218.504 209.165 219.064 210.957 220.184C212.781 221.272 214.189 222.792 215.181 224.744C216.173 226.696 216.669 228.92 216.669 231.416C216.669 231.928 216.509 232.344 216.189 232.664C215.869 232.952 215.453 233.096 214.941 233.096H194.541V230.024H215.325L213.261 231.512C213.293 229.656 212.957 227.992 212.253 226.52C211.549 225.048 210.541 223.896 209.229 223.064C207.949 222.232 206.413 221.816 204.621 221.816C202.797 221.816 201.197 222.248 199.821 223.112C198.445 223.976 197.373 225.176 196.605 226.712C195.869 228.216 195.501 229.944 195.501 231.896C195.501 233.848 195.917 235.576 196.749 237.08C197.613 238.584 198.781 239.768 200.253 240.632C201.725 241.496 203.421 241.928 205.341 241.928C206.493 241.928 207.645 241.736 208.797 241.352C209.981 240.936 210.925 240.424 211.629 239.816C211.981 239.528 212.381 239.384 212.829 239.384C213.277 239.352 213.661 239.464 213.981 239.72C214.397 240.104 214.605 240.52 214.605 240.968C214.637 241.416 214.461 241.8 214.077 242.12C213.021 243.016 211.677 243.768 210.045 244.376C208.413 244.952 206.845 245.24 205.341 245.24Z" fill="black"/>
<path d="M50.882 96.7707C35.2552 120.211 44.3709 141.128 50.882 148.657C61.8695 159.034 58.8176 129.123 60.0385 123.019C61.2593 116.915 64.3114 116.915 81.4032 113.252C98.4951 109.59 96.6638 96.7707 95.4429 94.9395C94.2221 93.1082 70.4155 67.4705 50.882 96.7707Z" fill="#FF9F2D" stroke="#FF9F2D" stroke-linecap="round" stroke-linejoin="round"/>
<path d="M111.312 68.69C133.757 74.0749 150.583 85.5783 155.873 92.4964C157.094 97.3798 161.977 99.089 140.002 125.459C118.027 151.829 128.811 169.817 136.95 175.514C150.786 184.467 191.279 160.255 201.656 124.24C211.136 91.3404 205.377 73.5748 204.098 66.8603C202.819 60.1459 194.387 35.5778 165.64 37.5603C130.237 40.0017 135.12 41.3754 123.523 44.2747C113.756 46.7164 109.483 46.106 105.21 48.5477C99.1054 51.5998 96.0533 65.029 111.312 68.69Z" fill="#9C6C4A" stroke="#9C6C4A" stroke-linecap="round" stroke-linejoin="round"/>
<path d="M90.5593 57.7038L80.8497 55.4192L83.2342 61.9767L90.5593 57.7038Z" fill="black"/>
<path d="M80.1821 55.2621L90.5593 57.7038L83.2342 61.9767L80.7926 55.2621" stroke="black" stroke-width="3" stroke-linecap="round" stroke-linejoin="round"/>
<path d="M99.1801 72.4985C99.5975 71.783 99.3558 70.8645 98.6402 70.4471C97.9246 70.0296 97.0062 70.2713 96.5888 70.9869L99.1801 72.4985ZM76.5197 58.3134L75.3066 57.4312L75.1822 57.6021L75.11 57.8008L76.5197 58.3134ZM92.3907 53.4301L92.1441 54.9097L92.3907 53.4301ZM111.924 32.0653L111.548 30.6133L111.924 32.0653ZM143.056 44.8849L144.116 43.8237L143.056 44.8849ZM155.264 40.0008L155.073 38.513L155.264 40.0008ZM195.552 111.421L194.092 111.077L195.552 111.421ZM130.237 178.567L129.752 177.148L130.237 178.567ZM49.6611 142.552L51.0892 142.093L49.6611 142.552ZM48.4403 105.926L49.833 106.483L49.833 106.483L48.4403 105.926ZM71.6363 75.4053L70.2947 76.0761L71.6363 75.4053ZM76.5197 94.3284L75.0554 94.6537L75.4162 96.2773L76.994 95.7514L76.5197 94.3284ZM100.326 100.433L99.1739 101.393L100.36 102.817L101.506 101.359L100.326 100.433ZM113.755 84.5616L114.426 83.22C113.827 82.9204 113.102 83.0543 112.65 83.548L113.755 84.5616ZM56.9861 90.0554L55.765 89.1842L55.765 89.1842L56.9861 90.0554ZM120.804 110.891C120.848 111.719 121.555 112.353 122.382 112.308C123.21 112.263 123.844 111.557 123.799 110.729L120.804 110.891ZM96.5888 70.9869C95.5133 72.8306 91.1981 76.6822 83.0982 73.9822L82.1495 76.8283C91.6298 79.9884 97.4069 75.5382 99.1801 72.4985L96.5888 70.9869ZM83.0982 73.9822C79.3109 72.7198 77.6883 70.0757 77.1391 67.1615C76.572 64.152 77.1781 60.892 77.9293 58.8261L75.11 57.8008C74.2334 60.2113 73.4966 64.0322 74.191 67.717C74.9034 71.4971 77.1467 75.1607 82.1495 76.8283L83.0982 73.9822ZM77.7327 59.1957C79.0413 57.3965 83.939 53.5421 92.1441 54.9097L92.6373 51.9505C83.2622 50.388 77.2536 54.754 75.3066 57.4312L77.7327 59.1957ZM92.1441 54.9097C93.6995 55.1689 95.0646 55.0909 96.2443 54.61C97.4417 54.1219 98.2932 53.282 98.9202 52.2992C99.5309 51.3418 99.949 50.2175 100.292 49.0891C100.631 47.9757 100.942 46.6952 101.265 45.5011C101.935 43.026 102.75 40.5618 104.346 38.4497C105.91 36.3806 108.3 34.5543 112.301 33.5173L111.548 30.6133C106.934 31.8093 103.95 33.9991 101.953 36.6407C99.9886 39.2393 99.0563 42.1805 98.3697 44.7173C98.0146 46.0291 97.7448 47.1561 97.4224 48.2157C97.1044 49.2605 96.7807 50.0748 96.391 50.6857C96.0176 51.271 95.6101 51.6289 95.1118 51.832C94.5959 52.0423 93.8287 52.149 92.6373 51.9505L92.1441 54.9097ZM112.301 33.5173C119.928 31.54 127.406 34.625 133.075 38.3549C135.885 40.2035 138.182 42.167 139.739 43.6312C140.516 44.3623 141.105 44.9646 141.475 45.3597C141.661 45.5585 141.788 45.7 141.853 45.7758C141.898 45.8271 141.888 45.819 141.862 45.7827C141.855 45.7745 141.844 45.7593 141.831 45.7394C141.821 45.7245 141.792 45.682 141.76 45.6239C141.743 45.5931 141.704 45.5131 141.683 45.464C141.652 45.3802 141.591 45.1265 141.574 44.9556C141.606 44.5885 142.071 43.7844 142.561 43.4906C142.925 43.4077 143.47 43.4539 143.635 43.5097C143.846 43.5948 143.989 43.7127 143.989 43.713C144.028 43.7434 144.057 43.769 144.069 43.7797C144.095 43.803 144.113 43.8207 144.116 43.8237L141.995 45.9462C142.008 45.9587 142.033 45.9837 142.065 46.0121C142.08 46.0254 142.111 46.0529 142.152 46.0848C142.154 46.0866 142.299 46.2054 142.51 46.2909C142.676 46.3469 143.221 46.3931 143.586 46.3101C144.076 46.0163 144.541 45.212 144.572 44.8445C144.556 44.6732 144.494 44.4191 144.463 44.3346C144.442 44.2849 144.402 44.2042 144.385 44.1725C144.331 44.0751 144.276 44.002 144.272 43.9968C144.222 43.9295 144.16 43.8572 144.122 43.8134C144.023 43.6991 143.869 43.527 143.664 43.3085C143.252 42.869 142.619 42.2218 141.794 41.4459C140.147 39.896 137.713 37.8154 134.724 35.8487C128.795 31.948 120.402 28.318 111.548 30.6133L112.301 33.5173ZM144.116 43.8237C144.074 43.7824 143.991 43.7037 143.872 43.6255C143.778 43.5639 143.504 43.3949 143.105 43.3789C142.583 43.3579 142.112 43.6064 141.828 43.9972C141.61 44.2967 141.565 44.5914 141.552 44.6954C141.523 44.9235 141.554 45.1073 141.56 45.142C141.571 45.2115 141.585 45.2698 141.594 45.3053C141.626 45.4317 141.676 45.5797 141.716 45.6949C141.805 45.9503 141.951 46.3474 142.122 46.819C142.471 47.7842 142.968 49.1853 143.492 50.8795C144.545 54.2819 145.69 58.8091 145.984 63.2956C146.281 67.8182 145.696 72.0551 143.548 75.0926C141.471 78.0293 137.704 80.155 130.879 80.0098L130.815 83.0092C138.336 83.1692 143.191 80.7932 145.997 76.8248C148.732 72.9571 149.292 67.8854 148.978 63.0993C148.662 58.2772 147.442 53.4957 146.358 49.9928C145.814 48.2343 145.3 46.7836 144.943 45.7982C144.761 45.2946 144.63 44.9417 144.55 44.71C144.505 44.5817 144.498 44.5519 144.503 44.5708C144.505 44.5795 144.514 44.6154 144.522 44.6669C144.525 44.6836 144.556 44.8539 144.528 45.073C144.515 45.1726 144.471 45.4639 144.255 45.7612C143.972 46.1498 143.503 46.3973 142.984 46.3764C142.588 46.3605 142.316 46.1928 142.226 46.1336C142.111 46.0578 142.032 45.9828 141.995 45.9462L144.116 43.8237ZM130.879 80.0098C127.44 79.9367 125.037 79.3058 123.435 78.3778C121.876 77.4754 121.023 76.2665 120.667 74.8334C119.914 71.805 121.305 67.3959 124.612 62.5116C127.857 57.7172 132.722 52.8073 138.236 48.9136C143.761 45.0129 149.826 42.2103 155.455 41.4886L155.073 38.513C148.799 39.3174 142.274 42.3901 136.506 46.463C130.728 50.5429 125.597 55.705 122.127 60.8299C118.719 65.865 116.677 71.2226 117.755 75.5575C118.315 77.806 119.693 79.6778 121.931 80.9739C124.125 82.2444 127.083 82.9297 130.815 83.0092L130.879 80.0098ZM155.455 41.4886C164.778 40.2934 171.789 41.3597 177.085 43.9436C182.366 46.5196 186.087 50.6746 188.716 55.9329L191.4 54.5913C188.535 48.862 184.382 44.1655 178.401 41.2473C172.435 38.337 164.796 37.2665 155.073 38.513L155.455 41.4886ZM188.716 55.9329C191.367 61.2341 193.926 69.911 195.209 79.8705C196.49 89.8175 196.482 100.921 194.092 111.077L197.012 111.764C199.506 101.166 199.498 89.6842 198.184 79.4873C196.873 69.3029 194.243 60.2777 191.4 54.5913L188.716 55.9329ZM194.092 111.077C190.232 127.483 180.356 141.888 168.291 153.274C156.225 164.66 142.053 172.948 129.752 177.148L130.721 179.987C143.448 175.641 157.988 167.122 170.35 155.455C182.714 143.788 192.982 128.893 197.012 111.764L194.092 111.077ZM129.752 177.148C122.789 179.525 113.273 179.85 104.044 178.859C94.8218 177.869 86.1307 175.592 80.8529 172.953L79.5113 175.636C85.221 178.491 94.2965 180.83 103.724 181.842C113.145 182.854 123.163 182.568 130.721 179.987L129.752 177.148ZM80.8529 172.953C72.3047 168.679 57.3653 161.618 51.0892 142.093L48.2331 143.011C54.9258 163.832 70.9677 171.364 79.5113 175.636L80.8529 172.953ZM51.0892 142.093C45.6932 125.306 48.0197 111.017 49.833 106.483L47.0475 105.369C44.9543 110.603 42.6411 125.614 48.2331 143.011L51.0892 142.093ZM70.2947 76.0761C70.4639 76.4145 70.7789 77.3528 71.1968 78.8236C71.5986 80.2372 72.0595 82.0085 72.5309 83.9016C73.4731 87.6856 74.4468 91.9151 75.0554 94.6537L77.9839 94.003C77.3717 91.2478 76.3921 86.9924 75.442 83.1767C74.9672 81.2699 74.4973 79.4626 74.0826 78.0035C73.6841 76.6014 73.2971 75.3727 72.978 74.7344L70.2947 76.0761ZM76.994 95.7514C79.236 95.004 83.1215 94.3638 87.2956 94.9588C91.4424 95.5498 95.8009 97.3453 99.1739 101.393L101.479 99.4723C97.5264 94.7297 92.4233 92.6593 87.719 91.9888C83.042 91.3222 78.6867 92.0249 76.0453 92.9053L76.994 95.7514ZM101.506 101.359C106.849 94.5592 112.642 87.9959 114.861 85.5752L112.65 83.548C110.392 86.0107 104.547 92.6326 99.1467 99.5058L101.506 101.359ZM49.833 106.483C50.3652 105.153 53.4881 97.5409 58.2071 90.9266L55.765 89.1842C50.8297 96.1015 47.6 103.988 47.0475 105.369L49.833 106.483ZM58.2071 90.9266C61.1756 86.7659 64.6117 82.8305 67.3728 80.1172C68.7612 78.7528 69.9351 77.7408 70.7661 77.1634C71.2011 76.8611 71.4399 76.751 71.5122 76.7281C71.5541 76.7148 71.4084 76.7735 71.1636 76.73C70.833 76.6712 70.4816 76.4499 70.2947 76.0761L72.978 74.7344C72.7062 74.191 72.2133 73.8696 71.6891 73.7764C71.2505 73.6983 70.859 73.7882 70.6072 73.8679C70.0922 74.0308 69.5528 74.3534 69.0543 74.6997C68.0184 75.4194 66.7045 76.5677 65.27 77.9774C62.3853 80.8123 58.8355 84.8805 55.765 89.1842L58.2071 90.9266ZM113.085 85.9032C113.413 86.0673 114.025 86.5375 114.788 87.5438C115.536 88.5288 116.376 89.9601 117.191 91.9393C118.821 95.8977 120.322 101.981 120.804 110.891L123.799 110.729C123.304 101.571 121.753 95.1407 119.965 90.7971C119.071 88.6253 118.11 86.9586 117.179 85.7307C116.263 84.524 115.319 83.6664 114.426 83.22L113.085 85.9032Z" fill="black"/>
<path d="M136.953 38.7807C136.342 30.6417 129.139 9.72451 105.211 3.37612C81.2822 -2.97227 66.1418 14.0731 57.597 25.3513C51.1224 33.8971 38.9177 72.1097 42.336 93.1082C45.7544 114.107 46.6083 117.118 46.6083 114.473" stroke="black" stroke-width="3" stroke-linecap="round"/>
<circle cx="71.636" cy="107.758" r="2.44169" fill="black"/>
<circle cx="110.703" cy="51.5994" r="2.44169" fill="black"/>
<circle cx="97.2738" cy="112.642" r="2.44169" fill="black"/>
<path d="M85.0653 125.461L76.5194 123.629L79.5715 130.344L85.0653 125.461Z" fill="black"/>
<path d="M79.5715 130.344L85.0653 125.461L76.5194 123.629L79.5715 130.344ZM79.5715 130.344C77.9437 132.175 73.2231 135.594 67.3631 134.617C61.503 133.64 59.6311 129.733 59.4276 127.902" stroke="black" stroke-width="3" stroke-linecap="round" stroke-linejoin="round"/>
<path d="M79.5717 130.344C80.1821 132.582 82.5017 137.303 86.8967 138.279C91.2918 139.256 96.46 137.465 98.4947 136.448" stroke="black" stroke-width="3" stroke-linecap="round" stroke-linejoin="round"/>
</svg>
