<svg width="170" height="183" viewBox="0 0 170 183" fill="none" xmlns="http://www.w3.org/2000/svg">
<path d="M12.6384 96.7707C-2.98843 120.211 6.12721 141.128 12.6384 148.657C23.6259 159.034 20.574 129.123 21.7948 123.019C23.0157 116.915 26.0678 116.915 43.1596 113.252C60.2514 109.59 58.4201 96.7707 57.1993 94.9395C55.9784 93.1082 32.1719 67.4705 12.6384 96.7707Z" fill="#FF9F2D" stroke="#FF9F2D" stroke-linecap="round" stroke-linejoin="round"/>
<path d="M73.0685 68.69C95.5129 74.0749 112.339 85.5783 117.629 92.4964C118.85 97.3798 123.733 99.089 101.758 125.459C79.783 151.829 90.5671 169.817 98.7061 175.514C112.542 184.467 153.036 160.255 163.413 124.24C172.892 91.3404 167.133 73.5748 165.854 66.8603C164.575 60.1459 156.144 35.5778 127.396 37.5603C91.9938 40.0017 96.8766 41.3754 85.2792 44.2747C75.5125 46.7164 71.2394 46.106 66.9664 48.5477C60.8618 51.5998 57.8097 65.029 73.0685 68.69Z" fill="#9C6C4A" stroke="#9C6C4A" stroke-linecap="round" stroke-linejoin="round"/>
<path d="M52.3157 57.7038L42.606 55.4192L44.9906 61.9767L52.3157 57.7038Z" fill="black"/>
<path d="M41.9385 55.2621L52.3157 57.7038L44.9906 61.9767L42.5489 55.2621" stroke="black" stroke-width="3" stroke-linecap="round" stroke-linejoin="round"/>
<path d="M98.7092 38.7807C98.0987 30.6417 90.8957 9.72451 66.9671 3.37612C43.0386 -2.97227 27.8982 14.0731 19.3534 25.3513C8 42 2 60 2 79C2 100.275 4.09265 103.5 8.3647 114.473" stroke="black" stroke-width="3" stroke-linecap="round"/>
<circle cx="33.3924" cy="107.758" r="2.44169" fill="black"/>
<circle cx="72.4595" cy="51.5994" r="2.44169" fill="black"/>
<circle cx="59.0303" cy="112.642" r="2.44169" fill="black"/>
<path d="M46.8218 125.461L38.2759 123.629L41.328 130.344L46.8218 125.461Z" fill="black"/>
<path d="M41.328 130.344L46.8218 125.461L38.2759 123.629L41.328 130.344ZM41.328 130.344C39.7002 132.175 34.9796 135.594 29.1196 134.617C23.2595 133.64 21.3876 129.734 21.1841 127.902" stroke="black" stroke-width="3" stroke-linecap="round" stroke-linejoin="round"/>
<path d="M41.3279 130.344C41.9383 132.582 44.2579 137.303 48.6529 138.279C53.048 139.256 58.2162 137.465 60.251 136.448" stroke="black" stroke-width="3" stroke-linecap="round" stroke-linejoin="round"/>
<path d="M60.9364 72.4985C61.3539 71.783 61.1122 70.8645 60.3966 70.4471C59.681 70.0296 58.7625 70.2713 58.3451 70.9869L60.9364 72.4985ZM38.276 58.3134L37.0629 57.4312L36.9386 57.6021L36.8663 57.8008L38.276 58.3134ZM54.147 53.4301L53.9004 54.9097L53.9004 54.9097L54.147 53.4301ZM73.6805 32.0653L74.0569 33.5173L73.6805 32.0653ZM104.812 44.8849L105.872 43.8237L105.872 43.8237L104.812 44.8849ZM117.02 40.0008L116.83 38.513L117.02 40.0008ZM157.309 111.421L155.872 110.989L157.309 111.421ZM91.993 178.567L91.5083 177.148L91.993 178.567ZM41.9384 174.294L42.6093 172.953L41.9384 174.294ZM11.4175 142.552L12.8455 142.093L12.8455 142.093L11.4175 142.552ZM10.1966 105.926L11.5893 106.483L11.5893 106.483L10.1966 105.926ZM33.3927 75.4053L32.051 76.0761L32.051 76.0761L33.3927 75.4053ZM38.276 94.3284L36.8117 94.6537L37.1725 96.2773L38.7503 95.7514L38.276 94.3284ZM62.0825 100.433L60.9302 101.393L62.1168 102.817L63.262 101.359L62.0825 100.433ZM75.5118 84.5616L76.1827 83.22C75.5837 82.9204 74.8587 83.0543 74.4061 83.548L75.5118 84.5616ZM18.7424 90.0554L17.5213 89.1842L18.7424 90.0554ZM82.56 110.891C82.6048 111.719 83.3116 112.353 84.1388 112.308C84.966 112.263 85.6004 111.557 85.5557 110.729L82.56 110.891ZM58.3451 70.9869C57.2696 72.8306 52.9545 76.6822 44.8546 73.9822L43.9059 76.8283C53.3861 79.9884 59.1633 75.5382 60.9364 72.4985L58.3451 70.9869ZM44.8546 73.9822C41.0673 72.7198 39.4446 70.0757 38.8955 67.1615C38.3283 64.152 38.9344 60.892 39.6857 58.826L36.8663 57.8008C35.9898 60.2113 35.253 64.0322 35.9474 67.717C36.6597 71.4971 38.9031 75.1607 43.9059 76.8283L44.8546 73.9822ZM39.4891 59.1957C40.7976 57.3965 45.6954 53.5421 53.9004 54.9097L54.3936 51.9505C45.0185 50.388 39.01 54.754 37.0629 57.4312L39.4891 59.1957ZM53.9004 54.9097C55.4559 55.1689 56.8209 55.0909 58.0006 54.61C59.198 54.1219 60.0495 53.282 60.6765 52.2992C61.2873 51.3418 61.7054 50.2175 62.0488 49.0891C62.3876 47.9757 62.6986 46.6952 63.0218 45.5011C63.6917 43.026 64.5059 40.5618 66.1024 38.4497C67.6664 36.3806 70.0568 34.5543 74.0569 33.5173L73.3041 30.6133C68.6907 31.8093 65.706 33.9991 63.7092 36.6407C61.7449 39.2393 60.8126 42.1805 60.126 44.7173C59.7709 46.0291 59.5012 47.1561 59.1787 48.2157C58.8608 49.2605 58.5371 50.0748 58.1474 50.6857C57.7739 51.271 57.3664 51.6289 56.8682 51.832C56.3523 52.0423 55.5851 52.149 54.3936 51.9505L53.9004 54.9097ZM74.0569 33.5173C81.6843 31.54 89.1622 34.625 94.8314 38.3549C97.6412 40.2035 99.9387 42.167 101.495 43.6312C102.273 44.3623 102.861 44.9646 103.231 45.3597C103.417 45.5585 103.544 45.7 103.609 45.7758C103.654 45.8271 103.645 45.819 103.618 45.7827C103.612 45.7745 103.601 45.7593 103.587 45.7394C103.577 45.7245 103.548 45.682 103.516 45.6239C103.5 45.5931 103.461 45.5131 103.44 45.464C103.409 45.3802 103.347 45.1265 103.331 44.9556C103.362 44.5885 103.827 43.7844 104.317 43.4906C104.682 43.4077 105.226 43.4539 105.391 43.5097C105.602 43.5948 105.745 43.7127 105.745 43.713C105.785 43.7434 105.813 43.7689 105.825 43.7797C105.851 43.803 105.869 43.8207 105.872 43.8237L103.752 45.9462C103.764 45.9587 103.79 45.9837 103.821 46.0121C103.836 46.0254 103.867 46.0529 103.908 46.0848C103.911 46.0866 104.055 46.2054 104.267 46.2909C104.432 46.3469 104.977 46.3931 105.342 46.3101C105.832 46.0163 106.297 45.212 106.329 44.8445C106.312 44.6732 106.251 44.4191 106.219 44.3346C106.198 44.2849 106.159 44.2042 106.142 44.1725C106.088 44.0751 106.032 44.002 106.028 43.9968C105.979 43.9295 105.916 43.8572 105.879 43.8134C105.78 43.6991 105.625 43.527 105.42 43.3085C105.008 42.869 104.376 42.2218 103.551 41.4459C101.903 39.896 99.4696 37.8154 96.4803 35.8487C90.5514 31.948 82.158 28.318 73.3041 30.6133L74.0569 33.5173ZM105.872 43.8237C105.831 43.7823 105.748 43.7037 105.629 43.6255C105.535 43.5638 105.26 43.3949 104.861 43.3789C104.34 43.3579 103.868 43.6064 103.584 43.9972C103.367 44.2967 103.321 44.5914 103.308 44.6954C103.279 44.9235 103.311 45.1073 103.316 45.1419C103.327 45.2115 103.341 45.2698 103.35 45.3053C103.382 45.4317 103.433 45.5797 103.473 45.6949C103.561 45.9503 103.708 46.3474 103.878 46.819C104.228 47.7842 104.724 49.1853 105.248 50.8795C106.301 54.2819 107.447 58.8091 107.741 63.2956C108.037 67.8182 107.452 72.0551 105.304 75.0926C103.227 78.0293 99.4602 80.155 92.6355 80.0098L92.5717 83.0092C100.092 83.1692 104.947 80.7932 107.754 76.8248C110.489 72.9571 111.048 67.8854 110.734 63.0993C110.418 58.2772 109.198 53.4957 108.114 49.9928C107.57 48.2343 107.056 46.7836 106.699 45.7982C106.517 45.2946 106.387 44.9417 106.306 44.71C106.262 44.5817 106.254 44.5519 106.259 44.5708C106.261 44.5795 106.27 44.6154 106.278 44.6669C106.281 44.6836 106.312 44.8539 106.284 45.073C106.271 45.1726 106.227 45.4639 106.011 45.7612C105.728 46.1498 105.259 46.3973 104.74 46.3764C104.344 46.3605 104.073 46.1928 103.983 46.1336C103.867 46.0578 103.788 45.9828 103.752 45.9462L105.872 43.8237ZM92.6355 80.0098C89.1959 79.9366 86.7932 79.3058 85.191 78.3778C83.6327 77.4754 82.7795 76.2665 82.4231 74.8334C81.6699 71.805 83.0618 67.3959 86.3681 62.5116C89.6136 57.7172 94.4782 52.8073 99.9927 48.9136C105.517 45.0129 111.582 42.2103 117.211 41.4886L116.83 38.513C110.555 39.3174 104.031 42.3901 98.2623 46.463C92.484 50.5429 87.3529 55.705 83.8838 60.8299C80.4754 65.865 78.4337 71.2226 79.5118 75.5575C80.071 77.806 81.4496 79.6778 83.6875 80.9739C85.8813 82.2444 88.8389 82.9297 92.5717 83.0092L92.6355 80.0098ZM117.211 41.4886C126.534 40.2934 133.545 41.3597 138.842 43.9436C144.122 46.5196 147.844 50.6746 150.473 55.9329L153.156 54.5913C150.291 48.862 146.139 44.1655 140.157 41.2473C134.191 38.337 126.552 37.2665 116.83 38.513L117.211 41.4886ZM150.473 55.9329C153.137 61.2612 156.004 70.0378 157.439 80.0186C158.874 89.9978 158.859 101.055 155.872 110.989L158.745 111.853C161.898 101.368 161.883 89.8404 160.409 79.5916C158.935 69.3444 155.986 60.2506 153.156 54.5913L150.473 55.9329ZM155.872 110.989C148.785 134.556 138.85 148.941 127.695 158.492C116.515 168.064 104 172.882 91.5083 177.148L92.4778 179.987C105.014 175.706 118.002 170.741 129.646 160.771C141.315 150.78 151.524 135.864 158.745 111.853L155.872 110.989ZM91.5083 177.148C84.5455 179.525 75.0295 179.85 65.8006 178.859C56.5781 177.869 47.8871 175.592 42.6093 172.953L41.2676 175.636C46.9774 178.491 56.0528 180.83 65.4803 181.842C74.9014 182.854 84.919 182.568 92.4778 179.987L91.5083 177.148ZM42.6093 172.953C34.0611 168.679 19.1216 161.618 12.8455 142.093L9.98944 143.011C16.6822 163.832 32.724 171.364 41.2676 175.636L42.6093 172.953ZM12.8455 142.093C7.44959 125.306 9.77608 111.017 11.5893 106.483L8.80388 105.369C6.71061 110.603 4.39741 125.614 9.98944 143.011L12.8455 142.093ZM32.051 76.0761C32.2202 76.4145 32.5352 77.3528 32.9532 78.8236C33.3549 80.2372 33.8159 82.0085 34.2872 83.9016C35.2294 87.6856 36.2031 91.9151 36.8117 94.6537L39.7403 94.003C39.128 91.2478 38.1484 86.9924 37.1983 83.1767C36.7236 81.2699 36.2536 79.4626 35.8389 78.0034C35.4405 76.6014 35.0534 75.3727 34.7343 74.7344L32.051 76.0761ZM38.7503 95.7514C40.9924 95.004 44.8778 94.3638 49.052 94.9588C53.1988 95.5498 57.5573 97.3453 60.9302 101.393L63.2349 99.4723C59.2827 94.7297 54.1797 92.6593 49.4753 91.9888C44.7983 91.3222 40.443 92.0249 37.8017 92.9053L38.7503 95.7514ZM63.262 101.359C68.605 94.5591 74.3985 87.9959 76.6176 85.5752L74.4061 83.548C72.1487 86.0106 66.3035 92.6325 60.9031 99.5058L63.262 101.359ZM11.5893 106.483C12.1215 105.153 15.2445 97.5409 19.9635 90.9266L17.5213 89.1842C12.5861 96.1015 9.35634 103.988 8.80388 105.369L11.5893 106.483ZM19.9635 90.9266C22.932 86.7659 26.3681 82.8305 29.1291 80.1172C30.5175 78.7527 31.6914 77.7408 32.5224 77.1634C32.9575 76.8611 33.1963 76.751 33.2686 76.7281C33.3104 76.7148 33.1648 76.7735 32.9199 76.73C32.5894 76.6712 32.2379 76.4499 32.051 76.0761L34.7343 74.7344C34.4626 74.191 33.9697 73.8696 33.4454 73.7764C33.0069 73.6983 32.6153 73.7882 32.3636 73.8678C31.8486 74.0308 31.3091 74.3534 30.8107 74.6997C29.7748 75.4194 28.4608 76.5677 27.0264 77.9774C24.1416 80.8123 20.5918 84.8805 17.5213 89.1842L19.9635 90.9266ZM74.8409 85.9032C75.1691 86.0673 75.7815 86.5375 76.5448 87.5438C77.2921 88.5288 78.1322 89.9601 78.9472 91.9393C80.5771 95.8977 82.0784 101.981 82.56 110.891L85.5557 110.729C85.0606 101.571 83.5098 95.1407 81.7213 90.7971C80.827 88.6253 79.8664 86.9585 78.935 85.7307C78.0196 84.524 77.0754 83.6664 76.1827 83.22L74.8409 85.9032Z" fill="black"/>
</svg>
