<svg width="170" height="183" viewBox="0 0 170 183" fill="none" xmlns="http://www.w3.org/2000/svg">
<path d="M66.9671 3.37612C90.8957 9.72451 98.0987 30.6417 98.7092 38.7807L8.3647 114.473C4.09265 103.5 2 100.275 2 79C2 60 8 42 19.3534 25.3513C27.8982 14.0731 43.0386 -2.97227 66.9671 3.37612Z" fill="white" stroke="white" stroke-width="3" stroke-linecap="round"/>
<path d="M44.3807 76.0061C35.5906 73.0761 36.6487 63.3907 38.2765 58.9143C39.9043 56.6761 45.3574 52.5659 54.1475 54.0309C65.1351 55.8622 56.4538 37.1322 73.681 32.6661C88.2108 28.8994 101.792 42.2122 104.386 44.9993C108.54 42.7282 112.864 41.1345 117.021 40.6016C136.066 38.1599 146.321 44.8753 151.815 55.8629C157.309 66.8505 163.449 91.6038 157.309 112.022C143 159.601 117.021 170.622 91.9935 179.168C77.4719 184.127 52.9265 180.389 41.9389 174.895C33.393 170.622 17.9024 163.326 11.418 143.153C5.92399 126.061 8.24383 111.411 10.1971 106.527C10.7394 105.171 13.9158 97.422 18.7429 90.6562C24.7819 82.1918 32.7147 74.6491 33.3932 76.0061H44.3807Z" fill="white"/>
<path d="M60.9369 73.0994C61.3543 72.3838 61.1126 71.4653 60.3971 71.0479C59.6815 70.6305 58.763 70.8722 58.3456 71.5877L60.9369 73.0994ZM38.2765 58.9143L37.0634 58.032L36.939 58.203L36.8668 58.4016L38.2765 58.9143ZM54.1475 54.0309L53.9009 55.5105L54.1475 54.0309ZM73.681 32.6661L74.0574 34.1181L74.0574 34.1181L73.681 32.6661ZM104.812 45.4858L103.752 46.547L103.752 46.547L104.812 45.4858ZM92.6041 82.1103L92.5722 83.61L92.6041 82.1103ZM117.021 40.6016L116.83 39.1138L117.021 40.6016ZM151.815 55.8629L150.473 56.5338L150.473 56.5338L151.815 55.8629ZM157.309 112.022L155.873 111.59L155.873 111.59L157.309 112.022ZM91.9935 179.168L92.4782 180.588L92.4782 180.588L91.9935 179.168ZM41.9389 174.895L42.6097 173.554L42.6097 173.554L41.9389 174.895ZM11.418 143.153L12.846 142.693L12.846 142.693L11.418 143.153ZM10.1971 106.527L8.80436 105.97L8.80436 105.97L10.1971 106.527ZM33.3932 76.0061L32.0515 76.6769L32.0515 76.6769L33.3932 76.0061ZM38.2765 94.9292L36.8122 95.2546L37.173 96.8782L38.7508 96.3522L38.2765 94.9292ZM62.083 101.033L60.9307 101.994L62.1173 103.418L63.2625 101.96L62.083 101.033ZM75.5123 85.1624L76.1832 83.8208C75.5842 83.5213 74.8592 83.6551 74.4066 84.1488L75.5123 85.1624ZM18.7429 90.6562L19.964 91.5274L19.964 91.5274L18.7429 90.6562ZM82.5605 111.492C82.6052 112.319 83.3121 112.954 84.1393 112.909C84.9665 112.864 85.6009 112.157 85.5562 111.33L82.5605 111.492ZM58.3456 71.5877C57.2701 73.4314 52.955 77.283 44.855 74.5831L43.9064 77.4291C53.3866 80.5892 59.1638 76.1391 60.9369 73.0994L58.3456 71.5877ZM44.855 74.5831C41.0678 73.3206 39.4451 70.6765 38.8959 67.7623C38.3288 64.7528 38.9349 61.4928 39.6862 59.4269L36.8668 58.4016C35.9902 60.8122 35.2534 64.633 35.9478 68.3179C36.6602 72.0979 38.9036 75.7615 43.9064 77.4291L44.855 74.5831ZM39.4896 59.7965C40.7981 57.9973 45.6958 54.143 53.9009 55.5105L54.3941 52.5513C45.019 50.9888 39.0105 55.3548 37.0634 58.032L39.4896 59.7965ZM53.9009 55.5105C55.4564 55.7697 56.8214 55.6918 58.0011 55.2108C59.1985 54.7227 60.05 53.8828 60.677 52.9C61.2878 51.9426 61.7059 50.8183 62.0493 49.69C62.3881 48.5765 62.6991 47.296 63.0223 46.1019C63.6922 43.6268 64.5064 41.1626 66.1029 39.0505C67.6669 36.9814 70.0573 35.1552 74.0574 34.1181L73.3046 31.2141C68.6911 32.4101 65.7065 34.5999 63.7097 37.2415C61.7454 39.8401 60.8131 42.7814 60.1265 45.3181C59.7714 46.6299 59.5017 47.757 59.1792 48.8166C58.8613 49.8613 58.5375 50.6757 58.1478 51.2865C57.7744 51.8719 57.3669 52.2297 56.8687 52.4328C56.3527 52.6431 55.5856 52.7499 54.3941 52.5513L53.9009 55.5105ZM74.0574 34.1181C80.7772 32.3761 87.3822 34.56 92.7579 37.6731C98.1179 40.777 102.047 44.6872 103.288 46.0212L105.484 43.9774C104.132 42.5242 99.973 38.3845 94.2613 35.0769C88.5653 31.7785 81.1146 29.1894 73.3046 31.2141L74.0574 34.1181ZM103.288 46.0211C103.454 46.199 103.564 46.3232 103.619 46.3874C103.661 46.4365 103.642 46.4169 103.608 46.3695C103.601 46.3589 103.586 46.3385 103.569 46.3117C103.558 46.2947 103.516 46.2302 103.474 46.1409C103.455 46.1012 103.407 45.9975 103.373 45.8563C103.361 45.8063 103.225 45.3161 103.51 44.7886C103.687 44.4606 103.978 44.2143 104.32 44.0905C104.623 43.9809 104.887 43.9952 105.032 44.0148C105.301 44.0514 105.491 44.154 105.536 44.1779C105.663 44.2459 105.751 44.3179 105.765 44.329C105.796 44.354 105.82 44.3748 105.831 44.3848C105.854 44.4056 105.869 44.4212 105.872 44.4245L103.752 46.547C103.765 46.5593 103.788 46.582 103.816 46.6079C103.83 46.6204 103.856 46.6432 103.889 46.6698C103.904 46.6824 103.994 46.7554 104.122 46.824C104.168 46.8483 104.358 46.951 104.628 46.9876C104.773 47.0072 105.036 47.0216 105.34 46.9119C105.683 46.788 105.973 46.5417 106.15 46.2136C106.435 45.6858 106.3 45.1954 106.287 45.1449C106.253 45.0033 106.205 44.899 106.186 44.8587C106.143 44.768 106.1 44.7017 106.088 44.6824C106.069 44.6532 106.052 44.6301 106.043 44.6163C105.99 44.5429 105.925 44.4673 105.895 44.4326C105.806 44.329 105.667 44.1738 105.484 43.9774L103.288 46.0211ZM105.872 44.4245C105.831 44.3832 105.748 44.3045 105.629 44.2263C105.535 44.1647 105.26 43.9957 104.862 43.9797C104.34 43.9587 103.869 44.2072 103.585 44.5981C103.367 44.8976 103.322 45.1922 103.308 45.2963C103.279 45.5244 103.311 45.7082 103.317 45.7428C103.328 45.8123 103.342 45.8706 103.351 45.9062C103.383 46.0325 103.433 46.1806 103.473 46.2958C103.562 46.5511 103.708 46.9482 103.879 47.4198C104.228 48.385 104.725 49.7861 105.249 51.4803C106.302 54.8827 107.447 59.4099 107.741 63.8965C108.038 68.419 107.453 72.656 105.305 75.6934C103.228 78.6301 99.4607 80.7559 92.636 80.6107L92.5722 83.61C100.092 83.77 104.948 81.394 107.754 77.4256C110.489 73.5579 111.049 68.4862 110.735 63.7001C110.419 58.878 109.199 54.0965 108.115 50.5936C107.571 48.8352 107.056 47.3844 106.7 46.3991C106.518 45.8954 106.387 45.5426 106.307 45.3108C106.262 45.1825 106.255 45.1527 106.259 45.1716C106.262 45.1804 106.271 45.2162 106.279 45.2678C106.282 45.2844 106.312 45.4547 106.285 45.6738C106.272 45.7734 106.228 46.0647 106.011 46.362C105.729 46.7507 105.26 46.9982 104.741 46.9773C104.345 46.9613 104.073 46.7936 103.983 46.7344C103.868 46.6586 103.789 46.5836 103.752 46.547L105.872 44.4245ZM92.636 80.6107C86.9201 80.489 84.1416 78.8471 82.9923 76.8583C81.8122 74.8161 81.9681 71.7745 83.6254 67.9939C86.9153 60.4889 95.5109 51.5613 105.106 46.3154L103.667 43.6831C93.6258 49.1728 84.4902 58.5488 80.8778 66.7895C79.084 70.8817 78.4961 75.0735 80.3949 78.3594C82.3246 81.6987 86.4478 83.4797 92.5722 83.61L92.636 80.6107ZM105.106 46.3154C109.145 44.1073 113.289 42.5924 117.212 42.0894L116.83 39.1138C112.44 39.6767 107.936 41.3492 103.667 43.6831L105.106 46.3154ZM117.212 42.0894C126.534 40.8942 133.545 41.9606 138.842 44.5444C144.122 47.1204 147.844 51.2754 150.473 56.5338L153.157 55.1921C150.292 49.4629 146.139 44.7664 140.157 41.8482C134.192 38.9379 126.553 37.8673 116.83 39.1138L117.212 42.0894ZM150.473 56.5338C153.137 61.8621 156.005 70.6386 157.44 80.6194C158.875 90.5986 158.86 101.656 155.873 111.59L158.745 112.454C161.898 101.969 161.883 90.4412 160.409 80.1924C158.936 69.9453 155.986 60.8514 153.157 55.1921L150.473 56.5338ZM155.873 111.59C148.785 135.157 138.85 149.542 127.695 159.093C116.516 168.665 104 173.483 91.5088 177.749L92.4782 180.588C105.014 176.307 118.002 171.342 129.646 161.372C141.315 151.381 151.524 136.465 158.745 112.454L155.873 111.59ZM91.5088 177.749C84.546 180.126 75.03 180.451 65.8011 179.46C56.5786 178.47 47.8876 176.192 42.6097 173.554L41.2681 176.237C46.9779 179.092 56.0533 181.43 65.4808 182.443C74.9019 183.454 84.9195 183.169 92.4782 180.588L91.5088 177.749ZM42.6097 173.554C34.0615 169.279 19.1221 162.219 12.846 142.693L9.98993 143.612C16.6826 164.433 32.7245 171.965 41.2681 176.237L42.6097 173.554ZM12.846 142.693C7.45008 125.907 9.77657 111.618 11.5898 107.084L8.80436 105.97C6.7111 111.204 4.3979 126.215 9.98993 143.612L12.846 142.693ZM32.0515 76.6769C32.2207 77.0153 32.5357 77.9537 32.9537 79.4244C33.3554 80.838 33.8163 82.6093 34.2877 84.5024C35.2299 88.2865 36.2036 92.5159 36.8122 95.2546L39.7408 94.6038C39.1285 91.8486 38.1489 87.5932 37.1988 83.7775C36.7241 81.8708 36.2541 80.0635 35.8394 78.6043C35.4409 77.2022 35.0539 75.9735 34.7348 75.3353L32.0515 76.6769ZM38.7508 96.3522C40.9929 95.6049 44.8783 94.9646 49.0525 95.5596C53.1992 96.1506 57.5578 97.9462 60.9307 101.994L63.2354 100.073C59.2832 95.3306 54.1802 93.2601 49.4758 92.5896C44.7988 91.923 40.4435 92.6257 37.8021 93.5062L38.7508 96.3522ZM63.2625 101.96C68.6055 95.16 74.399 88.5968 76.618 86.176L74.4066 84.1488C72.1492 86.6115 66.304 93.2334 60.9036 100.107L63.2625 101.96ZM11.5898 107.084C12.122 105.754 15.2449 98.1417 19.964 91.5274L17.5218 89.785C12.5866 96.7024 9.35682 104.589 8.80436 105.97L11.5898 107.084ZM19.964 91.5274C22.9325 87.3667 26.3685 83.4313 29.1296 80.718C30.518 79.3536 31.6919 78.3416 32.5229 77.7642C32.958 77.462 33.1968 77.3518 33.269 77.3289C33.3109 77.3157 33.1653 77.3744 32.9204 77.3308C32.5899 77.272 32.2384 77.0507 32.0515 76.6769L34.7348 75.3353C34.4631 74.7918 33.9702 74.4705 33.4459 74.3772C33.0074 74.2992 32.6158 74.389 32.3641 74.4687C31.8491 74.6316 31.3096 74.9542 30.8112 75.3005C29.7753 76.0202 28.4613 77.1686 27.0268 78.5783C24.1421 81.4131 20.5923 85.4813 17.5218 89.785L19.964 91.5274ZM74.8414 86.504C75.1696 86.6682 75.782 87.1383 76.5453 88.1446C77.2926 89.1296 78.1327 90.5609 78.9477 92.5401C80.5776 96.4985 82.0789 102.582 82.5605 111.492L85.5562 111.33C85.0611 102.172 83.5103 95.7415 81.7217 91.3979C80.8275 89.2261 79.8669 87.5594 78.9354 86.3315C78.0201 85.1248 77.0759 84.2672 76.1832 83.8208L74.8414 86.504ZM44.3807 74.5061H33.3932V77.5061H44.3807V74.5061Z" fill="white"/>
<path d="M12.6384 96.7707C-2.98843 120.211 6.12721 141.128 12.6384 148.657C23.6259 159.034 20.574 129.123 21.7948 123.019C23.0157 116.915 26.0678 116.915 43.1596 113.252C60.2514 109.59 58.4201 96.7707 57.1993 94.9395C55.9784 93.1082 32.1719 67.4705 12.6384 96.7707Z" fill="#FF9F2D" stroke="#FF9F2D" stroke-linecap="round" stroke-linejoin="round"/>
<path d="M73.0685 68.69C95.5129 74.0749 112.339 85.5783 117.629 92.4964C118.85 97.3798 123.733 99.089 101.758 125.459C79.783 151.829 90.5671 169.817 98.7061 175.514C112.542 184.467 153.036 160.255 163.413 124.24C172.892 91.3404 167.133 73.5748 165.854 66.8603C164.575 60.1459 156.144 35.5778 127.396 37.5603C91.9938 40.0017 96.8766 41.3754 85.2792 44.2747C75.5125 46.7164 71.2394 46.106 66.9664 48.5477C60.8618 51.5998 57.8097 65.029 73.0685 68.69Z" fill="#9C6C4A" stroke="#9C6C4A" stroke-linecap="round" stroke-linejoin="round"/>
<path d="M52.3157 57.7038L42.606 55.4192L44.9906 61.9767L52.3157 57.7038Z" fill="black"/>
<path d="M41.9385 55.2621L52.3157 57.7038L44.9906 61.9767L42.5489 55.2621" stroke="black" stroke-width="3" stroke-linecap="round" stroke-linejoin="round"/>
<path d="M98.7092 38.7807C98.0987 30.6417 90.8957 9.72451 66.9671 3.37612C43.0386 -2.97227 27.8982 14.0731 19.3534 25.3513C8 42 2 60 2 79C2 100.275 4.09265 103.5 8.3647 114.473" stroke="black" stroke-width="3" stroke-linecap="round"/>
<circle cx="33.3924" cy="107.758" r="2.44169" fill="black"/>
<circle cx="72.4595" cy="51.5994" r="2.44169" fill="black"/>
<circle cx="59.0303" cy="112.642" r="2.44169" fill="black"/>
<path d="M46.8218 125.461L38.2759 123.629L41.328 130.344L46.8218 125.461Z" fill="black"/>
<path d="M41.328 130.344L46.8218 125.461L38.2759 123.629L41.328 130.344ZM41.328 130.344C39.7002 132.175 34.9796 135.594 29.1196 134.617C23.2595 133.64 21.3876 129.734 21.1841 127.902" stroke="black" stroke-width="3" stroke-linecap="round" stroke-linejoin="round"/>
<path d="M41.3279 130.344C41.9383 132.582 44.2579 137.303 48.6529 138.279C53.048 139.256 58.2162 137.465 60.251 136.448" stroke="black" stroke-width="3" stroke-linecap="round" stroke-linejoin="round"/>
<path d="M60.9364 72.4985C61.3539 71.783 61.1122 70.8645 60.3966 70.4471C59.681 70.0296 58.7625 70.2713 58.3451 70.9869L60.9364 72.4985ZM38.276 58.3134L37.0629 57.4312L36.9386 57.6021L36.8663 57.8008L38.276 58.3134ZM54.147 53.4301L53.9004 54.9097L53.9004 54.9097L54.147 53.4301ZM73.6805 32.0653L74.0569 33.5173L73.6805 32.0653ZM104.812 44.8849L105.872 43.8237L105.872 43.8237L104.812 44.8849ZM117.02 40.0008L116.83 38.513L117.02 40.0008ZM157.309 111.421L155.872 110.989L157.309 111.421ZM91.993 178.567L91.5083 177.148L91.993 178.567ZM41.9384 174.294L42.6093 172.953L41.9384 174.294ZM11.4175 142.552L12.8455 142.093L12.8455 142.093L11.4175 142.552ZM10.1966 105.926L11.5893 106.483L11.5893 106.483L10.1966 105.926ZM33.3927 75.4053L32.051 76.0761L32.051 76.0761L33.3927 75.4053ZM38.276 94.3284L36.8117 94.6537L37.1725 96.2773L38.7503 95.7514L38.276 94.3284ZM62.0825 100.433L60.9302 101.393L62.1168 102.817L63.262 101.359L62.0825 100.433ZM75.5118 84.5616L76.1827 83.22C75.5837 82.9204 74.8587 83.0543 74.4061 83.548L75.5118 84.5616ZM18.7424 90.0554L17.5213 89.1842L18.7424 90.0554ZM82.56 110.891C82.6048 111.719 83.3116 112.353 84.1388 112.308C84.966 112.263 85.6004 111.557 85.5557 110.729L82.56 110.891ZM58.3451 70.9869C57.2696 72.8306 52.9545 76.6822 44.8546 73.9822L43.9059 76.8283C53.3861 79.9884 59.1633 75.5382 60.9364 72.4985L58.3451 70.9869ZM44.8546 73.9822C41.0673 72.7198 39.4446 70.0757 38.8955 67.1615C38.3283 64.152 38.9344 60.892 39.6857 58.826L36.8663 57.8008C35.9898 60.2113 35.253 64.0322 35.9474 67.717C36.6597 71.4971 38.9031 75.1607 43.9059 76.8283L44.8546 73.9822ZM39.4891 59.1957C40.7976 57.3965 45.6954 53.5421 53.9004 54.9097L54.3936 51.9505C45.0185 50.388 39.01 54.754 37.0629 57.4312L39.4891 59.1957ZM53.9004 54.9097C55.4559 55.1689 56.8209 55.0909 58.0006 54.61C59.198 54.1219 60.0495 53.282 60.6765 52.2992C61.2873 51.3418 61.7054 50.2175 62.0488 49.0891C62.3876 47.9757 62.6986 46.6952 63.0218 45.5011C63.6917 43.026 64.5059 40.5618 66.1024 38.4497C67.6664 36.3806 70.0568 34.5543 74.0569 33.5173L73.3041 30.6133C68.6907 31.8093 65.706 33.9991 63.7092 36.6407C61.7449 39.2393 60.8126 42.1805 60.126 44.7173C59.7709 46.0291 59.5012 47.1561 59.1787 48.2157C58.8608 49.2605 58.5371 50.0748 58.1474 50.6857C57.7739 51.271 57.3664 51.6289 56.8682 51.832C56.3523 52.0423 55.5851 52.149 54.3936 51.9505L53.9004 54.9097ZM74.0569 33.5173C81.6843 31.54 89.1622 34.625 94.8314 38.3549C97.6412 40.2035 99.9387 42.167 101.495 43.6312C102.273 44.3623 102.861 44.9646 103.231 45.3597C103.417 45.5585 103.544 45.7 103.609 45.7758C103.654 45.8271 103.645 45.819 103.618 45.7827C103.612 45.7745 103.601 45.7593 103.587 45.7394C103.577 45.7245 103.548 45.682 103.516 45.6239C103.5 45.5931 103.461 45.5131 103.44 45.464C103.409 45.3802 103.347 45.1265 103.331 44.9556C103.362 44.5885 103.827 43.7844 104.317 43.4906C104.682 43.4077 105.226 43.4539 105.391 43.5097C105.602 43.5948 105.745 43.7127 105.745 43.713C105.785 43.7434 105.813 43.7689 105.825 43.7797C105.851 43.803 105.869 43.8207 105.872 43.8237L103.752 45.9462C103.764 45.9587 103.79 45.9837 103.821 46.0121C103.836 46.0254 103.867 46.0529 103.908 46.0848C103.911 46.0866 104.055 46.2054 104.267 46.2909C104.432 46.3469 104.977 46.3931 105.342 46.3101C105.832 46.0163 106.297 45.212 106.329 44.8445C106.312 44.6732 106.251 44.4191 106.219 44.3346C106.198 44.2849 106.159 44.2042 106.142 44.1725C106.088 44.0751 106.032 44.002 106.028 43.9968C105.979 43.9295 105.916 43.8572 105.879 43.8134C105.78 43.6991 105.625 43.527 105.42 43.3085C105.008 42.869 104.376 42.2218 103.551 41.4459C101.903 39.896 99.4696 37.8154 96.4803 35.8487C90.5514 31.948 82.158 28.318 73.3041 30.6133L74.0569 33.5173ZM105.872 43.8237C105.831 43.7823 105.748 43.7037 105.629 43.6255C105.535 43.5638 105.26 43.3949 104.861 43.3789C104.34 43.3579 103.868 43.6064 103.584 43.9972C103.367 44.2967 103.321 44.5914 103.308 44.6954C103.279 44.9235 103.311 45.1073 103.316 45.1419C103.327 45.2115 103.341 45.2698 103.35 45.3053C103.382 45.4317 103.433 45.5797 103.473 45.6949C103.561 45.9503 103.708 46.3474 103.878 46.819C104.228 47.7842 104.724 49.1853 105.248 50.8795C106.301 54.2819 107.447 58.8091 107.741 63.2956C108.037 67.8182 107.452 72.0551 105.304 75.0926C103.227 78.0293 99.4602 80.155 92.6355 80.0098L92.5717 83.0092C100.092 83.1692 104.947 80.7932 107.754 76.8248C110.489 72.9571 111.048 67.8854 110.734 63.0993C110.418 58.2772 109.198 53.4957 108.114 49.9928C107.57 48.2343 107.056 46.7836 106.699 45.7982C106.517 45.2946 106.387 44.9417 106.306 44.71C106.262 44.5817 106.254 44.5519 106.259 44.5708C106.261 44.5795 106.27 44.6154 106.278 44.6669C106.281 44.6836 106.312 44.8539 106.284 45.073C106.271 45.1726 106.227 45.4639 106.011 45.7612C105.728 46.1498 105.259 46.3973 104.74 46.3764C104.344 46.3605 104.073 46.1928 103.983 46.1336C103.867 46.0578 103.788 45.9828 103.752 45.9462L105.872 43.8237ZM92.6355 80.0098C89.1959 79.9366 86.7932 79.3058 85.191 78.3778C83.6327 77.4754 82.7795 76.2665 82.4231 74.8334C81.6699 71.805 83.0618 67.3959 86.3681 62.5116C89.6136 57.7172 94.4782 52.8073 99.9927 48.9136C105.517 45.0129 111.582 42.2103 117.211 41.4886L116.83 38.513C110.555 39.3174 104.031 42.3901 98.2623 46.463C92.484 50.5429 87.3529 55.705 83.8838 60.8299C80.4754 65.865 78.4337 71.2226 79.5118 75.5575C80.071 77.806 81.4496 79.6778 83.6875 80.9739C85.8813 82.2444 88.8389 82.9297 92.5717 83.0092L92.6355 80.0098ZM117.211 41.4886C126.534 40.2934 133.545 41.3597 138.842 43.9436C144.122 46.5196 147.844 50.6746 150.473 55.9329L153.156 54.5913C150.291 48.862 146.139 44.1655 140.157 41.2473C134.191 38.337 126.552 37.2665 116.83 38.513L117.211 41.4886ZM150.473 55.9329C153.137 61.2612 156.004 70.0378 157.439 80.0186C158.874 89.9978 158.859 101.055 155.872 110.989L158.745 111.853C161.898 101.368 161.883 89.8404 160.409 79.5916C158.935 69.3444 155.986 60.2506 153.156 54.5913L150.473 55.9329ZM155.872 110.989C148.785 134.556 138.85 148.941 127.695 158.492C116.515 168.064 104 172.882 91.5083 177.148L92.4778 179.987C105.014 175.706 118.002 170.741 129.646 160.771C141.315 150.78 151.524 135.864 158.745 111.853L155.872 110.989ZM91.5083 177.148C84.5455 179.525 75.0295 179.85 65.8006 178.859C56.5781 177.869 47.8871 175.592 42.6093 172.953L41.2676 175.636C46.9774 178.491 56.0528 180.83 65.4803 181.842C74.9014 182.854 84.919 182.568 92.4778 179.987L91.5083 177.148ZM42.6093 172.953C34.0611 168.679 19.1216 161.618 12.8455 142.093L9.98944 143.011C16.6822 163.832 32.724 171.364 41.2676 175.636L42.6093 172.953ZM12.8455 142.093C7.44959 125.306 9.77608 111.017 11.5893 106.483L8.80388 105.369C6.71061 110.603 4.39741 125.614 9.98944 143.011L12.8455 142.093ZM32.051 76.0761C32.2202 76.4145 32.5352 77.3528 32.9532 78.8236C33.3549 80.2372 33.8159 82.0085 34.2872 83.9016C35.2294 87.6856 36.2031 91.9151 36.8117 94.6537L39.7403 94.003C39.128 91.2478 38.1484 86.9924 37.1983 83.1767C36.7236 81.2699 36.2536 79.4626 35.8389 78.0034C35.4405 76.6014 35.0534 75.3727 34.7343 74.7344L32.051 76.0761ZM38.7503 95.7514C40.9924 95.004 44.8778 94.3638 49.052 94.9588C53.1988 95.5498 57.5573 97.3453 60.9302 101.393L63.2349 99.4723C59.2827 94.7297 54.1797 92.6593 49.4753 91.9888C44.7983 91.3222 40.443 92.0249 37.8017 92.9053L38.7503 95.7514ZM63.262 101.359C68.605 94.5591 74.3985 87.9959 76.6176 85.5752L74.4061 83.548C72.1487 86.0106 66.3035 92.6325 60.9031 99.5058L63.262 101.359ZM11.5893 106.483C12.1215 105.153 15.2445 97.5409 19.9635 90.9266L17.5213 89.1842C12.5861 96.1015 9.35634 103.988 8.80388 105.369L11.5893 106.483ZM19.9635 90.9266C22.932 86.7659 26.3681 82.8305 29.1291 80.1172C30.5175 78.7527 31.6914 77.7408 32.5224 77.1634C32.9575 76.8611 33.1963 76.751 33.2686 76.7281C33.3104 76.7148 33.1648 76.7735 32.9199 76.73C32.5894 76.6712 32.2379 76.4499 32.051 76.0761L34.7343 74.7344C34.4626 74.191 33.9697 73.8696 33.4454 73.7764C33.0069 73.6983 32.6153 73.7882 32.3636 73.8678C31.8486 74.0308 31.3091 74.3534 30.8107 74.6997C29.7748 75.4194 28.4608 76.5677 27.0264 77.9774C24.1416 80.8123 20.5918 84.8805 17.5213 89.1842L19.9635 90.9266ZM74.8409 85.9032C75.1691 86.0673 75.7815 86.5375 76.5448 87.5438C77.2921 88.5288 78.1322 89.9601 78.9472 91.9393C80.5771 95.8977 82.0784 101.981 82.56 110.891L85.5557 110.729C85.0606 101.571 83.5098 95.1407 81.7213 90.7971C80.827 88.6253 79.8664 86.9585 78.935 85.7307C78.0196 84.524 77.0754 83.6664 76.1827 83.22L74.8409 85.9032Z" fill="black"/>
</svg>
